<svg xmlns="http://www.w3.org/2000/svg" xmlns:xlink="http://www.w3.org/1999/xlink" viewBox="0 0 828.47 828.47"><defs><style>.a{fill:url(#a);}.b{fill:#025;}.c{fill:#001a41;}.d{fill:#000d21;}.e{fill:#fff;}</style><linearGradient id="a" x1="961.92" y1="925.72" x2="94.1" y2="132.42" gradientUnits="userSpaceOnUse"><stop offset="0" stop-color="#3b5ef2"/><stop offset="1" stop-color="#37a1f7"/></linearGradient></defs><title>CSI-Logo</title><path class="a" d="M954.07,539.89c0,148.82-78.47,279.31-196.3,352.34l-.52.32a412.29,412.29,0,0,1-217.41,61.57c-228.77,0-414.23-185.45-414.23-414.23S311.07,125.65,539.84,125.65c180.89,0,334.7,115.94,391.15,277.58a.85.85,0,0,1,.06.17A413.27,413.27,0,0,1,954.07,539.89Z" transform="translate(-125.61 -125.65)"/><path class="b" d="M915.13,539.89c0,134.83-71.1,253.05-177.85,319.22l-.47.29a373.54,373.54,0,0,1-197,55.78c-207.26,0-375.29-168-375.29-375.29s168-375.29,375.29-375.29c163.88,0,303.23,105,354.38,251.48l0,.15A374.41,374.41,0,0,1,915.13,539.89Z" transform="translate(-125.61 -125.65)"/><path class="c" d="M915.13,539.89c0,134.83-71.1,253.05-177.85,319.22l-.47.29-255.66-108,210-421.1,203.07,85.78,0,.15A374.41,374.41,0,0,1,915.13,539.89Z" transform="translate(-125.61 -125.65)"/><rect class="d" x="332.53" y="391.93" width="297.58" height="297.58" transform="translate(397.71 -307.63) rotate(45)"/><polygon class="e" points="355.71 625.75 565.54 415.65 565.54 625.75 355.71 625.75"/><polygon class="e" points="354.71 204.64 354.71 411.55 147.8 411.55 354.71 204.64"/><polygon class="e" points="355.71 204.64 565.54 204.64 565.54 414.47 355.71 204.64"/><polygon class="e" points="354.71 419.06 354.71 625.97 147.8 419.06 354.71 419.06"/></svg>