<svg xmlns="http://www.w3.org/2000/svg" viewBox="0 0 555.15 690.15"><defs><style>.cls-1{fill:#5fbbe8;}.cls-2{fill:#5faede;}.cls-3{fill:#b1eced;}.cls-4{fill:#d7f5f6;}.cls-5{fill:#294f81;}.cls-6{fill:#33487a;}.cls-7{fill:#393760;}.cls-8{fill:#46aed2;}.cls-9{fill:#2f4572;}.cls-10{fill:#296abd;}.cls-11{fill:#c9eaff;}</style></defs><g id="Layer_2" data-name="Layer 2"><g id="Layer_2-2" data-name="Layer 2"><path class="cls-1" d="M555.13,472.5c-.92,37.84-9.74,60.94-34.86,48.92a78.18,78.18,0,0,1-14.43-9.4C488,497.8,410.41,347.67,465.26,346.38c14.17-.32,27.09,5,38.44,13.79C536.28,385.46,555.93,439.62,555.13,472.5Z"/><path class="cls-2" d="M555.13,472.5c-.92,37.84-9.74,60.94-34.86,48.92,8.13-20,15.34-66.17-16.57-161.25C536.28,385.46,555.93,439.62,555.13,472.5Z"/><path class="cls-3" d="M481.19,418.2c10.15,23.52,25.25,64.45,20.91,66.46-3.92,1.81-24.19-27.78-35.09-62-6.08-19.05-9.87-41.51-6.72-42.56C464.2,378.81,478,410.89,481.19,418.2Z"/><path class="cls-1" d="M146.09,509.64a77.66,77.66,0,0,1-14.43,9.4c-14.21,6.81-23.21,2.36-28.5-9.64-4.06-9.2-6-22.84-6.35-39.27-.81-32.89,18.85-87.05,51.42-112.34,11.36-8.8,24.27-14.11,38.45-13.78,8.58.2,13.91,4,16.73,10.42C218.72,388.9,161.12,497.65,146.09,509.64Z"/><path class="cls-4" d="M127.6,400.91c-1.56,2.38-18.66,28.58-12.7,34.24s35.37-9.58,50.78-34.24c8.68-13.9,15.46-34.83,9.7-38.94C168.28,356.9,142.68,377.8,127.6,400.91Z"/><path class="cls-2" d="M146.09,509.64a77.66,77.66,0,0,1-14.43,9.4c-14.21,6.81-23.21,2.36-28.5-9.64,21.77-9,57.63-42.65,100.25-155C218.72,388.9,161.12,497.65,146.09,509.64Z"/><path class="cls-1" d="M476.27,399.12c0,82.33-57.76,179-149.53,179-56.87,0-103.67-34.82-131-81.36-16.82-28.58-26.31-61.58-26.31-93.66,0-84.35,92.06-80.33,150.4-80.33,64,0,139.94-4.9,154.1,54.68A92.21,92.21,0,0,1,476.27,399.12Z"/><path class="cls-2" d="M476.27,399.12c0,82.33-57.76,179-149.53,179-56.87,0-103.67-34.82-131-81.36,57,26.82,219.33,82.39,278.19-119.31A92.21,92.21,0,0,1,476.27,399.12Z"/><path class="cls-3" d="M201.18,370.43c-11.92,19.44-3.48,47.1,17,58,21.64,11.48,51.08,1.19,59.12-21.63,7.64-21.67-7.08-46-28.18-52.78C232.18,348.52,211.1,354.27,201.18,370.43Z"/><path class="cls-1" d="M161.75,163.17a59.44,59.44,0,0,1-12.6-18.36,57.08,57.08,0,0,1,39.26-79.19A59,59,0,0,1,203.07,64C214.7,129.19,161.75,163.17,161.75,163.17Z"/><path class="cls-2" d="M161.75,163.17a59.44,59.44,0,0,1-12.6-18.36c6.63-11.65,13.29-24,19.85-37.2,7.22-14.49,13.66-28.53,19.41-42A59,59,0,0,1,203.07,64Q182.42,113.56,161.75,163.17Z"/><path class="cls-1" d="M484.47,228c-5.63,81.59-192.57,109.13-280.21,60.1-24.35-13.62-41-33.17-44-59.09C146.41,109.74,225,.28,315.76,0c32.89-.1,71.55,12.37,103.61,40.15C460.47,75.72,490.8,136.41,484.47,228Z"/><path class="cls-2" d="M484.47,228c-5.63,81.59-192.57,109.13-280.21,60.1,53.48,8.7,212.66,27.68,241.05-49.07,24.41-66-6.3-153.87-25.94-198.84C460.47,75.72,490.8,136.41,484.47,228Z"/><path class="cls-3" d="M211.47,80.6C216.33,87,246,73.52,265.91,58.77,285,44.64,304.46,22.37,300.13,16.1c-3.84-5.56-25.77,2.46-39.55,9.83C229.74,42.44,206.19,73.67,211.47,80.6Z"/><path class="cls-3" d="M168.57,207.67c.77,21.79,14.15,42.43,19.53,41,5.65-1.5,3.27-27.52.62-41.82-.76-4.11-5.42-29.21-11.29-29.09C172.81,177.87,168.06,193.56,168.57,207.67Z"/><path class="cls-5" d="M435.83,195.14c.05,16.37-17.88,26.5-41,32.56-24.38,6.39-54.52,8.26-75.52,8.12-30.05-.19-88-5.23-109-24.2-4.92-4.45-7.79-9.67-7.81-15.75a63.21,63.21,0,0,1,19.18-45.48,66.8,66.8,0,0,1,46.63-18.94l101.32-.32a66.59,66.59,0,0,1,52.21,24.65A62.81,62.81,0,0,1,435.83,195.14Z"/><path class="cls-6" d="M435.83,195.14c.05,16.37-17.88,26.5-41,32.56-24.38,6.39-54.52,8.26-75.52,8.12-30.05-.19-88-5.23-109-24.2,59.52-2,160.67-12.06,211.53-55.84A62.81,62.81,0,0,1,435.83,195.14Z"/><path class="cls-7" d="M415.08,181.4a29.53,29.53,0,1,1-2.63-12.05A29.49,29.49,0,0,1,415.08,181.4Z"/><path class="cls-8" d="M386.15,152.54a28.19,28.19,0,0,1,26.3,16.81A29.46,29.46,0,0,1,385.68,211h-.1a29.48,29.48,0,0,1-29.5-29.39c-.05-16.29,12.73-28.52,29-28.57Zm-.56-5.58h-.11a34.53,34.53,0,0,0-32.13,46.95A34.72,34.72,0,0,0,385.58,216h.11a34.53,34.53,0,0,0-.1-69.06Z"/><path class="cls-9" d="M412.44,169.25c-10.93,26.65-38.25,26-54.32,22.93a29.49,29.49,0,0,1,54.32-22.93Z"/><circle class="cls-3" cx="374.47" cy="171.74" r="9.79" transform="translate(-25.2 71.83) rotate(-10.6)"/><path class="cls-3" d="M408.73,187.15c1.6,1.07-.55,11.35-7.83,15.3-6.48,3.51-15.08,1-15.29-.91-.15-1.38,4.3-1.78,11.74-6.31C405.18,190.46,407.61,186.4,408.73,187.15Z"/><path class="cls-7" d="M284.24,181.81a29.49,29.49,0,1,1-2.62-12.06A29.49,29.49,0,0,1,284.24,181.81Z"/><path class="cls-8" d="M255.6,152.72c12,0,21.4,6.8,26,17a29.49,29.49,0,0,1-26.77,41.64h-.1a29.49,29.49,0,0,1-29.5-29.4,29.07,29.07,0,0,1,29.22-29.27Zm-.84-5.35h-.11a34.52,34.52,0,0,0-32.13,46.94,34.73,34.73,0,0,0,32.23,22.12h.11a34.57,34.57,0,0,0,34.42-34.64,34,34,0,0,0-3.08-14.13,34.55,34.55,0,0,0-31.44-20.29Z"/><path class="cls-9" d="M281.59,169.69c-10.93,26.65-38.24,25.94-54.31,22.9a29.48,29.48,0,0,1,54.31-22.9Z"/><circle class="cls-3" cx="244.96" cy="176.28" r="9.79" transform="translate(-39.31 74.93) rotate(-16.12)"/><path class="cls-3" d="M277.9,187.55c1.6,1.08-.55,11.35-7.84,15.31-6.47,3.51-15.07,1-15.28-.91-.15-1.39,4.3-1.78,11.74-6.32C274.35,190.86,276.78,186.81,277.9,187.55Z"/><path class="cls-10" d="M327.76,138c.3,2-12.94,6.61-26.67,7.92C278.83,148,258.4,141,258.7,138.57c.13-1.14,14.21-1.32,42.37-1.63C323.69,136.69,327.61,136.94,327.76,138Z"/><path class="cls-5" d="M213.27,182s47.7-3,68.28-29.7c0,0-23.15-9.8-41.51-5.87S213.27,182,213.27,182Z"/><path class="cls-5" d="M426.12,181.37a141.66,141.66,0,0,1-32.82-6.59c-12.92-4.28-26.75-11.29-35.64-22.7,0,0,23.09-9.93,41.47-6.11,7.35,1.53,13.13,7.49,17.42,14.1A85.47,85.47,0,0,1,426.12,181.37Z"/><path class="cls-6" d="M426.12,181.37a141.66,141.66,0,0,1-32.82-6.59,81.89,81.89,0,0,0,23.25-14.71A85.47,85.47,0,0,1,426.12,181.37Z"/><path class="cls-1" d="M152.27,95.33c-.1-.13-9.94-13.44-29.55-22C96.43,61.79,65.87,63.72,31.9,79.05l-3.63-8C73.81,50.46,107,56.64,126.73,65.43,148.35,75,159,89.55,159.42,90.16l-7.16,5.16,3.58-2.58Z"/><circle class="cls-5" cx="20.54" cy="79.69" r="20.53" transform="translate(-14.43 5.19) rotate(-10.69)"/><path class="cls-10" d="M15.22,66.53A11,11,0,1,1,3.69,77,11,11,0,0,1,15.22,66.53Z"/><path class="cls-5" d="M319.62,261.9c10,0,17.73,1.87,23.36,4.34,10.1,4.43,13.33,10.68,10.1,10.83-5,.23-17.05-3-30.6-3-15.57,0-26.17,2.22-34.18,2.42-.36,0-.7,0-1.05,0C279.12,276.57,289,262,319.62,261.9Z"/><path class="cls-7" d="M357.66,152.08a134.25,134.25,0,0,0,15.9,10.31,156.23,156.23,0,0,0,16.58,7.93l4.31,1.62c.71.27,1.41.59,2.15.82s1.46.45,2.19.7c1.46.49,2.91,1,4.39,1.48s3,.85,4.47,1.31l2.24.7c.76.19,1.52.37,2.28.58,1.52.39,3,.82,4.58,1.27,3.07.81,6.2,1.48,9.37,2.57-1.61.34-3.23.62-4.86.83a48.07,48.07,0,0,1-4.91.51c-1.64,0-3.29,0-4.94,0-.83,0-1.65,0-2.48,0s-1.64-.15-2.46-.25c-1.64-.18-3.29-.39-4.93-.63s-3.24-.69-4.87-1.05a75.07,75.07,0,0,1-9.52-3A66.41,66.41,0,0,1,370,167.54c-.65-.52-1.28-1.07-1.91-1.61s-1.21-1.16-1.79-1.75a47,47,0,0,1-3.37-3.68A34.62,34.62,0,0,1,357.66,152.08Z"/><path class="cls-7" d="M281.64,152.08a34.62,34.62,0,0,1-5.27,8.42,47,47,0,0,1-3.37,3.68c-.59.59-1.19,1.17-1.8,1.75s-1.25,1.09-1.9,1.61a66.63,66.63,0,0,1-17.16,10.2,74.06,74.06,0,0,1-9.52,3c-1.62.36-3.22.8-4.86,1.05s-3.29.45-4.93.63c-.82.1-1.64.19-2.46.25s-1.65,0-2.48,0c-1.65,0-3.3,0-4.94,0a47.78,47.78,0,0,1-4.91-.51c-1.63-.21-3.26-.49-4.86-.83,3.17-1.09,6.29-1.76,9.37-2.57,1.54-.45,3.06-.88,4.58-1.27.76-.21,1.52-.39,2.28-.58l2.24-.7c1.49-.46,3-.9,4.47-1.31s2.92-1,4.39-1.48c.72-.25,1.46-.47,2.19-.7s1.43-.55,2.15-.82l4.3-1.62a154.39,154.39,0,0,0,16.58-7.93A133.54,133.54,0,0,0,281.64,152.08Z"/><ellipse class="cls-11" cx="321.98" cy="648.81" rx="159.42" ry="41.33"/></g></g></svg>