<svg xmlns="http://www.w3.org/2000/svg" viewBox="0 0 673.49 847.58"><defs><style>.cls-1{fill:#5fbbe8;}.cls-2{fill:#5faede;}.cls-3{fill:#b1eced;}.cls-4{fill:#294f81;}.cls-5{fill:#33487a;}.cls-6{fill:#296abd;}.cls-7{fill:#46aed2;}.cls-8{fill:#caeff9;}.cls-9{fill:#f6b35b;}.cls-10{fill:#ea4754;}.cls-11{fill:#92ef9a;}.cls-12{fill:#c9eaff;}</style></defs><g id="Layer_2" data-name="Layer 2"><g id="Layer_2-2" data-name="Layer 2"><path class="cls-1" d="M123.83,439.66c-7,19-29.4,12.84-58.25-5.24-34.45-21.6-78.79-87.17-61.85-132.64v0a53.8,53.8,0,0,1,6.2-11.87c31.31-45,113.76,102.51,115.78,125.2C126.67,425.84,126,433.91,123.83,439.66Z"/><path class="cls-2" d="M123.83,439.66c-7,19-29.4,12.84-58.25-5.24-34.45-21.6-78.79-87.17-61.85-132.64C14.6,344.24,44.27,414,123.83,439.66Z"/><path class="cls-3" d="M56.12,315.33c7.44,10.57,18.08,29.21,14.63,32s-21.84-10.65-33.18-28.44c-7.73-12.14-13.64-28.5-10.28-30.71C31.09,285.71,46.42,301.54,56.12,315.33Z"/><path class="cls-1" d="M452.82,544.8c0,82.33-57.76,179-149.53,179-56.87,0-103.67-34.82-131-81.36C155.45,613.9,146,580.9,146,548.82c0-84.35,92.06-80.33,150.4-80.33,64,0,139.94-4.9,154.1,54.69A92.12,92.12,0,0,1,452.82,544.8Z"/><path class="cls-2" d="M452.82,544.8c0,82.33-57.76,179-149.53,179-56.87,0-103.67-34.82-131-81.36,57,26.82,219.34,82.39,278.19-119.3A92.12,92.12,0,0,1,452.82,544.8Z"/><path class="cls-3" d="M177.74,516.12c-11.93,19.43-3.49,47.09,17,58,21.63,11.48,51.07,1.19,59.11-21.62,7.64-21.68-7.08-46-28.18-52.78C208.73,494.2,187.65,500,177.74,516.12Z"/><path class="cls-1" d="M557,484.07c-32.28,19.77-56.46,24.9-60-2.72a78,78,0,0,1,.07-17.22c2.26-22.68,86.24-169.36,117.09-124,8,11.72,10.52,25.45,9.28,39.77C619.83,421,585,466.9,557,484.07Z"/><path class="cls-2" d="M557,484.07c-32.28,19.77-56.46,24.9-60-2.72,21.22-4,63.9-23,126.44-101.43C619.83,421,585,466.9,557,484.07Z"/><path class="cls-3" d="M562.43,392.51C548.19,413.79,522,448.69,518,446.14c-3.65-2.31,10.2-35.4,33-63.12,12.7-15.44,29.51-30.82,32.1-28.74C586.29,356.86,566.87,385.89,562.43,392.51Z"/><path class="cls-1" d="M181.19,254.74a59.36,59.36,0,0,1-7.82-20.84,57.07,57.07,0,0,1,57.12-67.45,59.3,59.3,0,0,1,14.64,1.9C240.75,234.48,181.19,254.74,181.19,254.74Z"/><path class="cls-2" d="M181.19,254.74a59.36,59.36,0,0,1-7.82-20.84c9.23-9.72,18.67-20.16,28.19-31.35,10.5-12.33,20.13-24.41,28.93-36.1a59.3,59.3,0,0,1,14.64,1.9Z"/><path class="cls-1" d="M478.9,395.15c-25.06,77.85-213.14,59.68-286.44-9-20.36-19.07-31.86-42.05-28.55-67.94,15.22-119.06,117.83-206.42,206-184.91,31.95,7.8,66.48,29.19,90.94,63.86C492.17,241.6,507,307.8,478.9,395.15Z"/><path class="cls-4" d="M450.49,306.88c-3.46,14.17-23.05,18.64-46.81,18.34-25-.32-54.71-5.93-75.06-11.09-29.13-7.37-84.34-25.64-100.62-47.08-3.82-5-5.49-10.24-4.2-15.51,3.75-15.35,14.31-27.51,28.38-34.75s31.61-9.53,49.32-5.21l98.43,24c20.59,5,36.86,17.91,45.4,33.85A52.36,52.36,0,0,1,450.49,306.88Z"/><path class="cls-5" d="M450.49,306.88c-3.46,14.17-23.05,18.64-46.81,18.34-25-.32-54.71-5.93-75.06-11.09-29.13-7.37-84.34-25.64-100.62-47.08,58.21,12.56,158.57,28.1,217.33,2.41A52.36,52.36,0,0,1,450.49,306.88Z"/><path class="cls-2" d="M478.9,395.15c-25.06,77.85-213.14,59.68-286.44-9,49.82,21.29,199.78,77.95,245.77,10.26,39.56-58.21,30.84-150.88,22.59-199.25C492.17,241.6,507,307.8,478.9,395.15Z"/><path class="cls-3" d="M249.29,186.53c3.18,7.34,35.22,1.42,58.09-8.11,21.92-9.14,46.15-26.08,43.46-33.2-2.4-6.33-25.6-3.81-40.75,0C276.19,153.88,245.82,178.53,249.29,186.53Z"/><path class="cls-3" d="M177.12,299.58c-4.48,21.34,3.55,44.59,9.11,44.5,5.85-.1,9.78-25.93,10.64-40.45.25-4.17,1.76-29.66-4-30.94C188.39,271.67,180,285.76,177.12,299.58Z"/><path class="cls-6" d="M357.66,232.2c-.19,2-14.16,3.31-27.79,1.29-22.12-3.29-40.28-15-39.4-17.31.4-1.07,14.12,2.14,41.52,8.6C354,230,357.76,231.16,357.66,232.2Z"/><path class="cls-1" d="M183.61,197.5c-.47-.59-11.39-14.88-14.52-38.33-2.86-21.46.57-55,33.12-92.89L208.9,72c-24.29,28.28-34.76,57.05-31.12,85.52,2.71,21.24,12.7,34.43,12.8,34.56Z"/><circle class="cls-4" cx="212.72" cy="61.3" r="20.53" transform="translate(12.5 155.75) rotate(-41.33)"/><circle class="cls-6" cx="212.3" cy="55.09" r="11.02" transform="translate(112.34 250.32) rotate(-77.43)"/><path class="cls-4" d="M314.37,382.6c-13.84-3-23.19-12-29.15-22.22-10.71-18.41-10.52-41-5.93-40.54,7.15.78,21.39,15.67,40.21,19.7,21.63,4.64,37.95.41,49.2,2.17q.75.1,1.47.27C381.46,344.4,356.86,391.7,314.37,382.6Z"/><path class="cls-5" d="M314.37,382.6c-13.84-3-23.19-12-29.15-22.22,19.53.67,58.45-.59,83.48-18.67q.75.1,1.47.27C381.46,344.4,356.86,391.7,314.37,382.6Z"/><path class="cls-7" d="M236.42,253.33a29.51,29.51,0,0,1,8.62-6.17,43.52,43.52,0,0,1,10.14-3.46,48.36,48.36,0,0,1,21.6.56A51.55,51.55,0,0,1,296,253.8,47,47,0,0,1,309.29,270c-6.41-3-12.15-6-18-8.55A110.34,110.34,0,0,0,274,255.24a90.19,90.19,0,0,0-18-2.69A115,115,0,0,0,236.42,253.33Z"/><path class="cls-7" d="M368.59,282.14a29.68,29.68,0,0,1,8.39-6.48,43.25,43.25,0,0,1,10-3.83,48.31,48.31,0,0,1,21.6-.23,51.44,51.44,0,0,1,19.54,8.84A47.14,47.14,0,0,1,442,296.09c-6.51-2.73-12.37-5.57-18.26-7.88a109.7,109.7,0,0,0-17.57-5.53,89.52,89.52,0,0,0-18.09-2A115.69,115.69,0,0,0,368.59,282.14Z"/><path class="cls-8" d="M85.37,202.1a5.06,5.06,0,0,1-4.68-3.16c-.26-.64-26.4-64.53-71.86-109.69a5,5,0,1,1,7.1-7.15C62.9,128.75,89,192.48,90,195.17a5,5,0,0,1-2.79,6.56A5,5,0,0,1,85.37,202.1Z"/><path class="cls-8" d="M136.62,138.3a5,5,0,0,1-5-4.65c-.06-.69-5.7-69.5-35.41-126.27a5,5,0,0,1,8.93-4.68c30.7,58.66,36.3,127.28,36.53,130.17a5,5,0,0,1-4.64,5.41Z"/><path class="cls-8" d="M549.44,257.52a5,5,0,0,1-3.1-9c2.28-1.78,56.79-43.84,120.83-60.63a5,5,0,0,1,2.56,9.75c-62,16.26-116.66,58.41-117.2,58.84A5.05,5.05,0,0,1,549.44,257.52Z"/><path class="cls-8" d="M537.09,176.61a5,5,0,0,1-4.14-7.89c1.64-2.39,40.91-58.94,96.9-94.27A5,5,0,1,1,635.23,83c-54.19,34.21-93.59,90.89-94,91.46A5,5,0,0,1,537.09,176.61Z"/><rect class="cls-9" x="271.27" y="70.96" width="10.08" height="42.98" transform="matrix(0.96, -0.26, 0.26, 0.96, -14.62, 76.49)"/><rect class="cls-9" x="528.92" y="446.23" width="42.98" height="10.08" transform="translate(46.56 953.99) rotate(-84.28)"/><rect class="cls-9" x="383.82" y="231.66" width="42.98" height="10.08" transform="translate(-24.45 425.42) rotate(-53.99)"/><rect class="cls-9" x="84.52" y="371.48" width="42.98" height="10.08" transform="translate(-260.9 240.93) rotate(-53.99)"/><rect class="cls-10" x="531.28" y="56.26" width="38.25" height="10.08" transform="translate(268.82 538.18) rotate(-65.79)"/><rect class="cls-10" x="581.98" y="329.32" width="38.25" height="10.08" transform="translate(49.68 745.51) rotate(-65.79)"/><rect class="cls-10" x="136.9" y="164.77" width="10.08" height="38.25" transform="translate(-79.35 113.22) rotate(-34.63)"/><rect class="cls-10" x="181.48" y="412.6" width="10.08" height="38.25" transform="translate(-212.27 182.45) rotate(-34.62)"/><rect class="cls-11" x="468.05" y="91.57" width="10.08" height="50.68" transform="translate(-14.11 127.81) rotate(-15.16)"/><rect class="cls-11" x="474.67" y="370.23" width="10.08" height="50.68" transform="translate(-86.77 139.25) rotate(-15.16)"/><rect class="cls-11" x="312.31" y="73.7" width="50.68" height="10.08" transform="translate(142.22 365.13) rotate(-68.82)"/><rect class="cls-11" x="68.03" y="326.45" width="50.68" height="10.08" transform="translate(-249.46 298.78) rotate(-68.82)"/><ellipse class="cls-12" cx="300.03" cy="806.25" rx="159.42" ry="41.33"/></g></g></svg>