<svg width="1512" height="982" viewBox="0 0 1512 982" fill="none" xmlns="http://www.w3.org/2000/svg">
<rect width="1512" height="982" fill="#242424"/>
<g clip-path="url(#clip0_0_1)">
<rect width="1512" height="982" fill="url(#paint0_linear_0_1)"/>
<g filter="url(#filter0_d_0_1)">
<path d="M247.911 223.29C44.9756 213.31 -161 463.855 -161 463.855V1044H1638V973.285C1638 973.285 1619.78 678.839 1439.87 658.822C1320.94 645.59 1280.61 760.863 1160.59 755.519C968.88 746.984 1054.37 462.357 862.333 463.855C745.079 464.769 718.926 568.69 602.02 575.489C372.238 588.853 477.892 234.601 247.911 223.29Z" fill="#000A23" shape-rendering="crispEdges"/>
<path d="M247.911 223.29C44.9756 213.31 -161 463.855 -161 463.855V1044H1638V973.285C1638 973.285 1619.78 678.839 1439.87 658.822C1320.94 645.59 1280.61 760.863 1160.59 755.519C968.88 746.984 1054.37 462.357 862.333 463.855C745.079 464.769 718.926 568.69 602.02 575.489C372.238 588.853 477.892 234.601 247.911 223.29Z" stroke="url(#paint1_linear_0_1)" stroke-width="2" shape-rendering="crispEdges"/>
</g>
<path d="M0 560.457C0 560.457 278.553 536.924 375.542 612.659C457.596 676.733 356.65 755.176 426.78 825.198C524.805 923.071 706.895 864.031 850.437 932.918C926.495 969.418 1091.63 1053.48 1024.15 1043.12" stroke="url(#paint2_linear_0_1)" stroke-width="3"/>
<path d="M635 -79.6347C635 -79.6347 950.783 -109.352 1060.73 -13.7116C1153.76 67.2023 1039.32 166.263 1118.82 254.69C1229.95 378.287 1436.37 303.729 1599.1 390.721C1685.32 436.816 1872.53 542.972 1796.03 529.892" stroke="url(#paint3_linear_0_1)" stroke-width="3"/>
</g>
<defs>
<filter id="filter0_d_0_1" x="-166" y="222" width="1809" height="831" filterUnits="userSpaceOnUse" color-interpolation-filters="sRGB">
<feFlood flood-opacity="0" result="BackgroundImageFix"/>
<feColorMatrix in="SourceAlpha" type="matrix" values="0 0 0 0 0 0 0 0 0 0 0 0 0 0 0 0 0 0 127 0" result="hardAlpha"/>
<feOffset dy="4"/>
<feGaussianBlur stdDeviation="2"/>
<feComposite in2="hardAlpha" operator="out"/>
<feColorMatrix type="matrix" values="0 0 0 0 0 0 0 0 0 0 0 0 0 0 0 0 0 0 0.25 0"/>
<feBlend mode="normal" in2="BackgroundImageFix" result="effect1_dropShadow_0_1"/>
<feBlend mode="normal" in="SourceGraphic" in2="effect1_dropShadow_0_1" result="shape"/>
</filter>
<linearGradient id="paint0_linear_0_1" x1="1540.5" y1="-317" x2="338.5" y2="1363.5" gradientUnits="userSpaceOnUse">
<stop stop-color="#082D47"/>
<stop offset="0.989915" stop-color="#054370"/>
</linearGradient>
<linearGradient id="paint1_linear_0_1" x1="-61.0555" y1="418.476" x2="1388.81" y2="1048.9" gradientUnits="userSpaceOnUse">
<stop stop-color="#25738F" stop-opacity="0.35"/>
<stop offset="1" stop-color="#08212C"/>
</linearGradient>
<linearGradient id="paint2_linear_0_1" x1="77.5" y1="580" x2="1003" y2="975" gradientUnits="userSpaceOnUse">
<stop stop-color="#1096C8"/>
<stop offset="1" stop-color="#077FAF" stop-opacity="0.22"/>
</linearGradient>
<linearGradient id="paint3_linear_0_1" x1="1049" y1="43.5" x2="1425" y2="396" gradientUnits="userSpaceOnUse">
<stop stop-color="#00B6FF"/>
<stop offset="1" stop-color="#076D96" stop-opacity="0.39"/>
</linearGradient>
<clipPath id="clip0_0_1">
<rect width="1512" height="982" fill="white"/>
</clipPath>
</defs>
</svg>
