<svg xmlns="http://www.w3.org/2000/svg" viewBox="0 0 691.77 947.11"><defs><style>.cls-1{fill:#5fbbe8;}.cls-2{fill:#5faede;}.cls-3{fill:#b1eced;}.cls-4{fill:#294f81;}.cls-5{fill:#33487a;}.cls-6{fill:#393760;}.cls-7{fill:#46aed2;}.cls-8{fill:#2f4572;}.cls-9{fill:#296abd;}.cls-10{fill:#bbe1f4;}.cls-11{fill:#b1d3f0;}.cls-12{fill:#bbdaf4;}.cls-13{fill:#caeff9;}.cls-14{fill:#c9eaff;}</style></defs><g id="Layer_2" data-name="Layer 2"><g id="Layer_2-2" data-name="Layer 2"><path class="cls-1" d="M138.44,613.3C134,633.05,111,629.84,80,615.66,43,598.71-9.44,539.45,1.46,492.16h0a53.85,53.85,0,0,1,4.61-12.58c25.2-48.72,126.1,86.88,131.05,109.12C139.46,599.23,139.8,607.32,138.44,613.3Z"/><path class="cls-2" d="M138.44,613.3C134,633.05,111,629.84,80,615.66,43,598.71-9.44,539.45,1.46,492.16,17.75,532.86,56.22,598.17,138.44,613.3Z"/><path class="cls-3" d="M55.17,498.8c8.75,9.52,21.72,26.62,18.66,29.87s-23-7.73-36.58-23.9C28,493.74,20,478.28,23.06,475.65,26.5,472.68,43.76,486.38,55.17,498.8Z"/><path class="cls-1" d="M472.54,665.1c0,82.33-57.76,179-149.53,179-56.86,0-103.66-34.81-131-81.36-16.82-28.58-26.31-61.58-26.31-93.66,0-84.35,92.06-80.33,150.4-80.33,64,0,139.94-4.9,154.11,54.69A92.15,92.15,0,0,1,472.54,665.1Z"/><path class="cls-2" d="M472.54,665.1c0,82.33-57.76,179-149.53,179-56.86,0-103.66-34.81-131-81.36,57,26.83,219.34,82.39,278.2-119.3A92.15,92.15,0,0,1,472.54,665.1Z"/><path class="cls-3" d="M197.46,636.42c-11.92,19.44-3.49,47.1,17,58,21.63,11.47,51.07,1.18,59.11-21.63,7.65-21.68-7.08-46-28.18-52.78C228.45,614.5,207.37,620.26,197.46,636.42Z"/><path class="cls-1" d="M599.52,724.84c-.92,37.84-9.74,60.94-34.86,48.91a76.79,76.79,0,0,1-14.42-9.4C532.42,750.14,454.8,600,509.65,598.72c14.18-.33,27.09,5,38.44,13.79C580.67,637.8,600.32,692,599.52,724.84Z"/><path class="cls-2" d="M599.52,724.84c-.92,37.84-9.74,60.94-34.86,48.91,8.13-20,15.34-66.16-16.57-161.24C580.67,637.8,600.32,692,599.52,724.84Z"/><path class="cls-3" d="M525.58,670.54C535.73,694.05,550.84,735,546.49,737c-3.91,1.82-24.19-27.78-35.09-62-6.07-19-9.87-41.51-6.72-42.56C508.59,631.15,522.43,663.22,525.58,670.54Z"/><path class="cls-1" d="M159,415.45a59.55,59.55,0,0,1-12.53-18.4A57.07,57.07,0,0,1,186,318a59,59,0,0,1,14.67-1.62C212.06,381.64,159,415.45,159,415.45Z"/><path class="cls-2" d="M159,415.45a59.55,59.55,0,0,1-12.53-18.4c6.66-11.63,13.35-24,19.95-37.14C173.7,345.45,180.18,331.43,186,318a59,59,0,0,1,14.67-1.62Z"/><path class="cls-1" d="M481.53,481.25c-5.89,81.57-192.92,108.53-280.4,59.22-24.31-13.7-40.93-33.29-43.85-59.22C143.83,362,222.8,252.76,313.52,252.76c32.89,0,71.51,12.59,103.49,40.48C458,328.93,488.14,389.72,481.53,481.25Z"/><path class="cls-1" d="M153.7,358.44c-.67-.36-16.46-9-28.84-29.14C113.53,310.85,103,278.81,117.4,231l8.45,2.54c-10.71,35.7-8.6,66.24,6.29,90.79,11.1,18.3,25.59,26.3,25.73,26.38Z"/><circle class="cls-4" cx="124.98" cy="222.15" r="20.53"/><path class="cls-4" d="M433,409.2c0,16.37-18,26.45-41.13,32.43-24.39,6.31-54.55,8.09-75.54,7.89-30.05-.29-88-5.51-108.92-24.55-4.9-4.46-7.76-9.69-7.76-15.77A63.16,63.16,0,0,1,219,363.79,66.73,66.73,0,0,1,265.65,345H367A66.54,66.54,0,0,1,419.1,369.8,62.79,62.79,0,0,1,433,409.2Z"/><path class="cls-5" d="M433,409.2c0,16.37-18,26.45-41.13,32.43-24.39,6.31-54.55,8.09-75.54,7.89-30.05-.29-88-5.51-108.92-24.55,59.53-1.79,160.71-11.55,211.7-55.17A62.79,62.79,0,0,1,433,409.2Z"/><path class="cls-4" d="M319.11,523.12c-19.23,0-34.19-6.82-45-15.61-19.45-15.77-25.64-37.91-19.4-38.4,9.7-.74,32.85,10.84,59,10.84,30,0,50.49-7.56,65.93-8.19.69,0,1.36-.05,2-.05C397.29,471.71,378.1,523.12,319.11,523.12Z"/><path class="cls-2" d="M481.53,481.25c-5.89,81.57-192.92,108.53-280.4,59.22,53.45,8.87,212.57,28.35,241.2-48.31C467,426.23,436.5,338.27,417,293.24,458,328.93,488.14,389.72,481.53,481.25Z"/><path class="cls-3" d="M209,333c4.83,6.38,34.55-7,54.51-21.65,19.12-14.08,38.65-36.28,34.34-42.56-3.82-5.58-25.77,2.37-39.57,9.7C227.38,294.94,203.72,326.09,209,333Z"/><path class="cls-3" d="M165.68,460c.71,21.79,14,42.48,19.41,41.07,5.66-1.48,3.35-27.51.75-41.82-.75-4.1-5.33-29.22-11.2-29.12C170,430.19,165.22,445.86,165.68,460Z"/><path class="cls-6" d="M412.27,395.4a29.51,29.51,0,1,1-2.59-12.07A29.17,29.17,0,0,1,412.27,395.4Z"/><path class="cls-7" d="M382.78,365.91a29.48,29.48,0,1,1-29.5,29.49,29.44,29.44,0,0,1,29.5-29.49Zm0-5a34.53,34.53,0,1,0,34.53,34.53,34.16,34.16,0,0,0-3-14.14,34.56,34.56,0,0,0-31.5-20.39Z"/><path class="cls-8" d="M409.66,383.27c-11,26.62-38.32,25.83-54.38,22.73a29.48,29.48,0,0,1,54.38-22.73Z"/><circle class="cls-3" cx="371.7" cy="385.61" r="9.79"/><path class="cls-3" d="M405.91,401.12c1.6,1.08-.58,11.35-7.88,15.28-6.49,3.5-15.08.94-15.28-.95-.15-1.39,4.31-1.77,11.76-6.28C402.35,404.42,404.79,400.37,405.91,401.12Z"/><path class="cls-6" d="M281.44,395.39a29.52,29.52,0,1,1-2.59-12.06A29.13,29.13,0,0,1,281.44,395.39Z"/><path class="cls-7" d="M252,365.9a29.46,29.46,0,0,1,26.9,17.43,29.13,29.13,0,0,1,2.59,12.06A29.5,29.5,0,1,1,252,365.9Zm0-5a34.54,34.54,0,1,0,34.53,34.53,34,34,0,0,0-3-14.14A34.54,34.54,0,0,0,252,360.86Z"/><path class="cls-8" d="M278.83,383.27c-11,26.62-38.32,25.82-54.38,22.73a29.48,29.48,0,0,1,54.38-22.73Z"/><circle class="cls-3" cx="240.87" cy="385.6" r="9.79"/><path class="cls-3" d="M275.08,401.12c1.6,1.08-.58,11.35-7.88,15.28-6.49,3.49-15.08.94-15.28-.95-.15-1.39,4.3-1.77,11.75-6.28C271.51,404.42,274,400.37,275.08,401.12Z"/><path class="cls-9" d="M325.1,351.7c.28,2-13,6.58-26.7,7.84-22.27,2-42.67-5-42.37-7.47.14-1.13,14.22-1.26,42.37-1.49C321,350.4,325,350.67,325.1,351.7Z"/><circle class="cls-9" cx="122.08" cy="216.64" r="11.02" transform="translate(-61.23 48.61) rotate(-18.09)"/><path class="cls-5" d="M319.11,523.12c-19.23,0-34.19-6.82-45-15.61,26.11-3.44,77.42-12.83,105.51-35.75.69,0,1.36-.05,2-.05C397.29,471.71,378.1,523.12,319.11,523.12Z"/><path class="cls-10" d="M527.22,228c2.1,19.14,1.27,60-36.84,88.34h0c20-33.63-1.7-79.61-12.49-98.57Z"/><path class="cls-10" d="M691,128.79c-96.41,134.49-315.36,50-393,14.1A98.26,98.26,0,0,1,405.39,2.06l208,43.1A98.31,98.31,0,0,1,691,128.79Z"/><path class="cls-11" d="M689.71,161.31a98.26,98.26,0,0,1-116.15,76.27l-.2,0-20.2-4.19h0c-4.32,48.75-61,81.94-62.78,83,38.11-28.38,38.94-69.2,36.84-88.34l-49.35-10.22L365.53,194.47a98,98,0,0,1-67.61-51.58c77.69,35.87,296.64,120.39,393.05-14.1A98.19,98.19,0,0,1,689.71,161.31Z"/><polygon class="cls-12" points="573.36 237.54 553.16 233.36 553.16 233.35 573.36 237.54"/><ellipse class="cls-13" cx="412.56" cy="71.11" rx="59.64" ry="94.93" transform="translate(298.1 473.8) rotate(-83.91)"/><path class="cls-4" d="M419,139.3l-8.46-1.79,7-32.92L380.2,96.68l-7,32.91-8.45-1.79,15.3-72.17,8.45,1.79-6.71,31.66L419.15,97l6.71-31.65,8.46,1.79Z"/><path class="cls-4" d="M483.28,128.15l-36.39-7.71q-1.62,8.64,1.81,14.27T459.89,142a25.86,25.86,0,0,0,17.22-2.35l-1.64,7.75q-7.85,3.49-19,1.13-10.92-2.33-15.68-10.66t-2-21.08q2.55-12,11-18.15a22.34,22.34,0,0,1,18.54-4q10.13,2.14,14.27,9.86t1.68,19.34Zm-7-8.78q1.47-7.17-1.09-11.86t-8.59-6a13.6,13.6,0,0,0-10.8,2.07,19.35,19.35,0,0,0-7.35,9.86Z"/><path class="cls-4" d="M499,156.25l-8.25-1.75L506.9,78.21,515.16,80Z"/><path class="cls-4" d="M524,161.54l-8.26-1.75L531.87,83.5l8.25,1.75Z"/><path class="cls-4" d="M561.94,170.86q-11.43-2.43-16.71-11.09t-2.76-20.59q2.74-13,11.39-18.78t20.72-3.23q11.52,2.43,16.49,10.91t2.29,21q-2.61,12.33-11.15,18.28T561.94,170.86ZM572.51,124q-8-1.68-13.73,2.75T551,140.67q-1.93,9.15,1.62,15.43T564,164q8,1.69,13.41-2.57t7.43-13.84q2-9.66-1.15-15.81T572.51,124Z"/><path class="cls-4" d="M607.14,180.13a5.6,5.6,0,0,1-3.61-2.45,5.42,5.42,0,0,1-.8-4.27,5.69,5.69,0,0,1,10.35-1.94,5.43,5.43,0,0,1,.82,4.3,5.37,5.37,0,0,1-2.49,3.58A5.57,5.57,0,0,1,607.14,180.13ZM626.86,108l-11.94,51.63-6.8-1.44,10.09-52Z"/><polygon class="cls-10" points="573.36 237.54 553.16 233.36 553.16 233.35 573.36 237.54"/><ellipse class="cls-14" cx="319.6" cy="905.78" rx="159.42" ry="41.33"/></g></g></svg>